<?xml version="1.0" standalone="no"?>
<!DOCTYPE svg PUBLIC "-//W3C//DTD SVG 20010904//EN"
 "http://www.w3.org/TR/2001/REC-SVG-20010904/DTD/svg10.dtd">
<svg version="1.0" xmlns="http://www.w3.org/2000/svg"
 width="400.000000pt" height="400.000000pt" viewBox="0 0 400.000000 400.000000"
 preserveAspectRatio="xMidYMid meet">
<metadata>
Created by potrace 1.16, written by Peter Selinger 2001-2019
</metadata>
<g transform="translate(0.000000,400.000000) scale(0.100000,-0.100000)"
fill="#000000" stroke="none">
<path d="M1760 3884 c-128 -15 -300 -53 -300 -66 0 -5 -5 -6 -11 -2 -13 8 -89
-15 -89 -28 0 -4 -3 -7 -7 -6 -7 1 -16 -1 -68 -21 -61 -24 -192 -87 -201 -98
-6 -7 -18 -13 -27 -13 -8 0 -17 -7 -21 -15 -3 -8 -12 -15 -21 -15 -9 0 -25 -9
-37 -20 -12 -10 -25 -17 -29 -14 -4 2 -12 -4 -18 -13 -6 -10 -11 -14 -11 -9 0
6 -7 1 -16 -10 -8 -10 -13 -12 -9 -4 4 8 -3 3 -15 -12 -12 -16 -26 -28 -32
-28 -6 0 -21 -10 -34 -22 -13 -13 -44 -41 -69 -63 -88 -78 -168 -163 -247
-265 -24 -30 -46 -56 -50 -58 -5 -2 -8 -10 -8 -18 0 -8 -4 -14 -10 -14 -5 0
-10 -7 -10 -15 0 -8 -4 -15 -10 -15 -5 0 -10 -6 -10 -14 0 -8 -6 -16 -14 -19
-7 -3 -25 -26 -39 -51 -14 -26 -22 -44 -16 -41 5 4 9 1 9 -4 0 -6 -6 -11 -13
-11 -8 0 -14 -6 -14 -12 0 -7 -14 -43 -32 -79 -17 -36 -31 -68 -31 -71 0 -3
-6 -21 -14 -39 -8 -19 -15 -38 -16 -44 -1 -5 -8 -17 -16 -26 -9 -10 -16 -33
-17 -53 -1 -20 -6 -36 -10 -36 -4 0 -7 -6 -6 -12 1 -7 -3 -25 -9 -39 -6 -14
-21 -84 -33 -155 -45 -254 -26 -669 38 -834 4 -8 5 -21 4 -27 -1 -7 3 -13 9
-13 6 0 8 -5 5 -10 -7 -11 15 -81 28 -91 5 -3 9 -10 9 -15 1 -26 83 -210 107
-240 12 -15 21 -35 21 -44 0 -10 7 -20 15 -24 8 -3 15 -12 15 -21 0 -9 9 -25
20 -37 11 -12 26 -34 32 -50 7 -15 15 -28 19 -28 3 0 16 -14 28 -31 13 -18 17
-29 10 -25 -8 4 -6 1 3 -7 10 -8 14 -17 10 -21 -4 -4 0 -6 8 -4 8 2 19 -7 25
-19 5 -13 13 -23 18 -23 4 0 5 -5 1 -12 -4 -6 -3 -8 3 -5 6 4 21 -5 34 -20 13
-14 17 -22 9 -18 -8 5 12 -19 45 -52 33 -33 63 -59 66 -57 11 6 50 -42 42 -51
-5 -4 -2 -5 4 -1 8 4 31 -12 60 -41 27 -26 43 -41 38 -33 -6 9 0 5 12 -9 13
-14 28 -26 35 -26 7 0 33 -14 58 -31 25 -17 53 -33 62 -37 10 -4 18 -10 18
-15 0 -5 13 -12 29 -15 16 -3 35 -12 42 -20 20 -19 114 -65 184 -89 33 -12 62
-24 65 -27 10 -12 80 -32 90 -26 5 3 10 2 10 -3 0 -10 97 -35 235 -58 139 -24
460 -25 607 -1 150 24 338 73 338 89 0 4 3 7 8 6 4 0 15 2 25 5 22 9 51 18 54
18 2 0 35 16 74 35 39 19 82 39 95 44 13 5 24 14 24 20 0 5 5 10 11 10 5 0 7
-6 4 -12 -4 -7 2 -3 13 9 11 12 22 19 26 16 3 -4 20 8 37 25 17 18 38 32 45
32 8 0 14 4 14 10 0 5 3 9 8 8 4 -2 22 11 40 27 19 17 35 28 37 25 1 -3 12 6
24 20 11 14 20 21 21 17 0 -8 38 28 142 131 73 73 137 142 132 142 -7 0 68 94
79 98 4 2 7 10 7 18 0 8 5 14 10 14 6 0 10 7 10 15 0 8 5 15 10 15 6 0 10 6
10 14 0 8 6 16 14 19 21 8 66 95 53 101 -7 2 -5 5 4 5 9 1 16 7 16 14 0 6 14
41 32 76 17 36 31 68 31 72 0 3 8 24 17 45 9 22 16 42 15 47 -1 4 2 7 8 7 12
0 33 77 25 90 -3 6 -1 10 5 10 6 0 10 6 9 13 -1 6 3 24 9 38 19 48 52 273 59
404 8 182 -19 446 -62 585 -7 25 -19 66 -26 93 -7 26 -18 47 -23 47 -5 0 -6 3
-3 7 4 3 2 11 -3 18 -5 6 -21 42 -35 78 -27 71 -42 103 -63 125 -7 7 -10 18
-7 23 4 5 1 9 -4 9 -6 0 -11 9 -11 20 0 10 -6 23 -13 27 -12 7 -26 34 -27 48
0 3 -8 14 -18 25 -10 11 -25 33 -33 48 -8 15 -24 36 -36 48 -24 22 -31 40 -11
28 7 -5 8 -3 4 5 -5 7 -11 10 -14 7 -6 -7 -38 36 -34 46 1 5 -1 7 -6 5 -4 -1
-8 2 -9 6 -1 4 -16 19 -33 33 -16 14 -28 29 -26 33 3 4 -23 34 -57 66 -34 33
-53 49 -42 35 11 -14 -11 4 -50 39 -38 36 -71 68 -73 73 -2 4 -10 8 -17 8 -8
0 -20 9 -28 20 -8 11 -17 17 -20 14 -4 -4 -9 1 -13 10 -3 9 -10 16 -15 16 -17
0 -119 67 -112 74 4 4 -1 4 -11 0 -14 -5 -17 -4 -12 4 5 8 0 12 -13 12 -10 0
-21 4 -23 9 -1 5 -10 11 -18 13 -8 2 -17 6 -20 9 -10 12 -116 61 -175 81 -33
12 -62 24 -65 27 -5 6 -26 13 -140 47 -199 57 -497 77 -740 48z m-372 -1192
l3 -63 47 3 47 3 3 63 3 62 84 0 84 0 3 -62 3 -63 50 0 50 0 3 63 3 62 84 0
85 0 0 -165 0 -165 -65 0 -65 0 0 -140 0 -140 53 1 52 0 110 130 c61 72 112
134 113 140 2 5 -21 9 -52 9 l-56 0 0 165 0 165 378 -2 377 -3 0 -165 0 -165
-61 -5 -60 -5 -130 -150 c-71 -83 -151 -176 -177 -207 l-48 -56 180 -211 180
-210 58 -3 58 -3 3 -162 2 -163 -380 0 -380 0 2 163 3 162 53 3 c28 2 52 5 52
8 0 3 -52 66 -116 140 l-117 135 -46 -3 -46 -3 -3 -137 -3 -138 66 0 c80 0 77
6 72 -185 l-4 -140 -367 -3 -366 -2 0 165 0 165 80 0 80 0 0 420 0 419 -77 3
-78 3 -3 168 -2 168 87 -3 88 -3 3 -63z"/>
</g>
</svg>
