<?xml version="1.0" standalone="no"?>
<!DOCTYPE svg PUBLIC "-//W3C//DTD SVG 20010904//EN"
 "http://www.w3.org/TR/2001/REC-SVG-20010904/DTD/svg10.dtd">
<svg version="1.0" xmlns="http://www.w3.org/2000/svg"
 width="400.000000pt" height="400.000000pt" viewBox="0 0 400.000000 400.000000"
 preserveAspectRatio="xMidYMid meet">
<metadata>
Created by potrace 1.16, written by Peter Selinger 2001-2019
</metadata>
<g transform="translate(0.000000,400.000000) scale(0.100000,-0.100000)"
fill="#000000" stroke="none">
<path d="M1835 3880 c-233 -25 -503 -106 -699 -209 -189 -98 -320 -195 -467
-341 -262 -261 -442 -598 -514 -958 -55 -275 -56 -453 -4 -718 76 -394 241
-707 519 -985 149 -149 305 -262 496 -357 282 -141 664 -218 958 -193 474 41
888 231 1211 555 142 143 238 275 340 468 149 282 230 665 206 973 -38 474
-230 898 -555 1220 -269 268 -590 435 -986 515 -162 33 -367 45 -505 30z
m-447 -1188 l3 -63 47 3 47 3 3 63 3 62 84 0 84 0 3 -62 3 -63 50 0 50 0 3 63
3 62 84 0 85 0 0 -165 0 -165 -65 0 -65 0 0 -140 0 -140 53 1 52 0 110 130
c61 72 112 134 113 140 2 5 -21 9 -52 9 l-56 0 0 165 0 165 378 -2 377 -3 0
-165 0 -165 -61 -5 -60 -5 -130 -150 c-71 -83 -151 -176 -177 -207 l-48 -56
180 -211 180 -210 58 -3 58 -3 3 -162 2 -163 -380 0 -380 0 2 163 3 162 53 3
c28 2 52 5 52 8 0 3 -52 66 -116 140 l-117 135 -46 -3 -46 -3 -3 -137 -3 -138
66 0 c80 0 77 6 72 -185 l-4 -140 -367 -3 -366 -2 0 165 0 165 80 0 80 0 0
420 0 419 -77 3 -78 3 -3 168 -2 168 87 -3 88 -3 3 -63z"/>
</g>
</svg>
