{
    "asset" : {
        "generator" : "Khronos glTF Blender I/O v1.4.40",
        "version" : "2.0"
    },
    "scene" : 0,
    "scenes" : [
        {
            "name" : "Scene",
            "nodes" : [
                0
            ]
        }
    ],
    "nodes" : [
        {
            "mesh" : 0,
            "name" : "chanrgrfr",
            "rotation" : [
                -0.08599748462438583,
                0.70185786485672,
                -0.70185786485672,
                0.0859970897436142
            ],
            "scale" : [
                1.8896008729934692,
                85.19355010986328,
                2.11285400390625
            ],
            "translation" : [
                12.470392227172852,
                3.3802027702331543,
                -0.8548905849456787
            ]
        }
    ],
    "materials" : [
        {
            "alphaCutoff" : 0.5,
            "alphaMode" : "MASK",
            "doubleSided" : true,
            "name" : "SVGMat.001",
            "pbrMetallicRoughness" : {
                "baseColorFactor" : [
                    0.06662583351135254,
                    0.708375871181488,
                    0.45641112327575684,
                    1
                ]
            }
        }
    ],
    "meshes" : [
        {
            "name" : "ttt",
            "primitives" : [
                {
                    "attributes" : {
                        "POSITION" : 0,
                        "NORMAL" : 1,
                        "TEXCOORD_0" : 2
                    },
                    "indices" : 3,
                    "material" : 0
                }
            ]
        }
    ],
    "accessors" : [
        {
            "bufferView" : 0,
            "componentType" : 5126,
            "count" : 7709,
            "max" : [
                6.057000160217285,
                0,
                0.009000000543892384
            ],
            "min" : [
                0.07600000500679016,
                -0.010000002570450306,
                -0.6820000410079956
            ],
            "type" : "VEC3"
        },
        {
            "bufferView" : 1,
            "componentType" : 5126,
            "count" : 7709,
            "type" : "VEC3"
        },
        {
            "bufferView" : 2,
            "componentType" : 5126,
            "count" : 7709,
            "type" : "VEC2"
        },
        {
            "bufferView" : 3,
            "componentType" : 5123,
            "count" : 9972,
            "type" : "SCALAR"
        }
    ],
    "bufferViews" : [
        {
            "buffer" : 0,
            "byteLength" : 92508,
            "byteOffset" : 0
        },
        {
            "buffer" : 0,
            "byteLength" : 92508,
            "byteOffset" : 92508
        },
        {
            "buffer" : 0,
            "byteLength" : 61672,
            "byteOffset" : 185016
        },
        {
            "buffer" : 0,
            "byteLength" : 19944,
            "byteOffset" : 246688
        }
    ],
    "buffers" : [
        {
            "byteLength" : 266632,
            "uri" : "data:application/octet-stream;base64,"
        }
    ]
}
